<?xml version="1.0" standalone="no"?>
<!DOCTYPE svg PUBLIC "-//W3C//DTD SVG 20010904//EN"
 "http://www.w3.org/TR/2001/REC-SVG-20010904/DTD/svg10.dtd">
<svg version="1.0" xmlns="http://www.w3.org/2000/svg"
 width="432.000000pt" height="432.000000pt" viewBox="0 0 432.000000 432.000000"
 preserveAspectRatio="xMidYMid meet">
<metadata>
Created by potrace 1.11, written by Peter Selinger 2001-2013
</metadata>
<g transform="translate(0.000000,432.000000) scale(0.100000,-0.100000)"
fill="#000000" stroke="none">
<path d="M1605 3220 c-4 -7 -5 -105 -1 -219 3 -113 9 -525 12 -916 3 -390 8
-713 10 -716 4 -8 75 -14 604 -54 41 -4 116 -10 167 -16 113 -11 210 -12 217
-1 3 5 10 69 16 143 5 74 15 179 20 234 5 55 14 163 20 240 5 77 14 178 20
225 5 47 12 119 15 160 4 41 10 118 15 170 5 52 16 181 25 285 8 105 16 201
18 214 2 28 -10 36 -83 50 -30 6 -125 25 -210 42 -85 17 -186 37 -225 44 -98
17 -234 44 -275 55 -19 4 -75 16 -125 25 -49 9 -108 20 -130 25 -85 20 -103
21 -110 10z m705 -403 c166 -60 264 -201 320 -457 25 -117 -5 -486 -48 -595
-64 -158 -138 -252 -237 -300 -55 -27 -69 -29 -160 -28 -87 1 -107 4 -154 28
-142 70 -210 169 -271 395 -10 37 -16 89 -27 204 -14 162 33 413 104 548 57
110 154 193 257 219 41 11 172 3 216 -14z"/>
<path d="M2125 2575 c-121 -65 -168 -207 -169 -505 0 -212 22 -304 91 -381
103 -114 247 -85 329 66 12 22 36 124 53 221 6 33 11 119 11 191 0 219 -47
347 -145 399 -45 24 -134 29 -170 9z"/>
<path d="M1098 3165 c-2 -3 -25 -9 -49 -14 -24 -5 -60 -14 -79 -19 -19 -6 -87
-24 -150 -40 -111 -30 -243 -65 -305 -82 -54 -15 -228 -61 -318 -84 -48 -12
-92 -27 -97 -32 -9 -9 -5 -66 20 -284 5 -41 16 -140 25 -220 27 -246 36 -322
45 -400 5 -41 16 -142 25 -225 9 -82 20 -184 25 -225 5 -41 13 -120 19 -175
22 -209 33 -275 48 -275 8 0 58 17 111 39 53 21 124 49 157 61 33 13 74 29 90
36 17 7 68 27 115 44 47 18 99 37 115 44 34 14 234 92 280 108 17 6 34 15 40
20 5 4 15 8 23 8 8 0 28 6 45 14 18 7 66 27 107 43 84 33 83 31 61 138 -6 28
-17 88 -26 135 -8 47 -19 103 -24 125 -5 22 -14 65 -21 95 -15 79 -51 261 -57
290 -9 51 -53 277 -63 325 -27 128 -53 264 -60 310 -5 28 -18 93 -29 145 -12
52 -21 95 -21 97 0 5 -46 3 -52 -2z m-243 -480 c54 -104 148 -289 210 -410 62
-121 147 -287 189 -369 42 -82 76 -152 76 -157 0 -5 -17 -16 -37 -25 -21 -8
-60 -25 -88 -38 -27 -13 -53 -22 -58 -19 -4 2 -17 25 -28 51 -54 120 -89 191
-98 197 -6 3 -30 -3 -53 -14 -24 -10 -72 -31 -108 -46 -36 -15 -78 -33 -95
-40 -16 -7 -41 -17 -55 -21 -62 -18 -67 -27 -74 -137 -3 -56 -8 -133 -12 -170
l-6 -69 -77 -35 c-42 -19 -91 -42 -109 -50 -18 -9 -34 -14 -36 -12 -5 5 20
219 34 300 6 30 10 71 10 90 0 20 4 60 9 90 13 70 30 201 41 314 5 50 14 124
19 165 11 86 38 307 51 425 14 129 21 148 55 157 80 19 107 27 113 32 11 12
30 -19 127 -209z"/>
<path d="M710 2551 c-10 -20 -19 -124 -37 -433 -3 -54 -1 -98 3 -98 5 0 61 20
124 44 92 35 116 48 118 65 2 12 -12 54 -31 94 -20 39 -52 108 -72 152 -94
204 -92 200 -105 176z"/>
<path d="M3585 2850 c-88 -4 -242 -8 -342 -9 -100 0 -184 -4 -187 -9 -5 -8
-39 -236 -56 -367 -10 -87 -20 -165 -45 -350 -9 -66 -20 -154 -25 -195 -5 -41
-14 -104 -20 -140 -5 -36 -17 -126 -26 -200 -9 -74 -19 -164 -24 -200 -9 -75
-8 -77 65 -84 27 -3 145 -15 260 -27 116 -11 251 -25 300 -29 153 -15 416 -41
505 -51 47 -5 120 -12 162 -15 l78 -7 -6 184 c-3 101 -9 225 -15 276 -5 51 -9
132 -9 180 0 48 -4 149 -10 223 -5 74 -17 288 -26 475 -9 187 -18 343 -21 348
-5 8 -325 7 -558 -3z m36 -221 c9 -19 29 -68 44 -109 15 -41 30 -84 35 -95 4
-11 19 -51 33 -90 37 -102 127 -347 137 -370 5 -11 20 -54 35 -95 15 -41 30
-84 35 -95 4 -11 20 -54 35 -95 14 -41 30 -84 35 -95 4 -11 14 -36 20 -55 12
-33 21 -56 49 -123 6 -15 11 -30 11 -33 0 -3 -26 -3 -57 0 -32 4 -88 9 -125
12 -37 3 -71 11 -76 17 -4 7 -21 53 -37 102 -38 118 -52 144 -78 150 -40 9
-251 25 -327 25 -86 0 -94 -6 -105 -84 -4 -25 -11 -49 -16 -52 -5 -3 -9 -15
-9 -27 0 -47 -10 -50 -116 -38 -54 6 -100 13 -102 16 -4 3 10 52 28 100 15 40
40 128 40 141 0 8 4 22 9 32 5 9 17 44 26 77 9 33 29 103 45 155 38 125 75
251 95 325 10 33 21 69 25 80 14 36 40 127 40 141 0 8 4 22 9 32 5 9 13 30 17
47 l9 29 95 4 c52 2 97 6 99 8 10 10 27 -5 42 -37z"/>
<path d="M3480 2288 c-16 -67 -42 -159 -65 -231 -8 -26 -15 -54 -15 -62 0 -9
-4 -23 -9 -33 -18 -36 -31 -86 -23 -93 4 -4 73 -11 155 -15 118 -5 147 -4 147
6 0 32 -156 470 -167 470 -7 0 -17 -19 -23 -42z"/>
</g>
</svg>
